<?xml version="1.0" standalone="no"?><!-- Generator: Gravit.io --><svg xmlns="http://www.w3.org/2000/svg" xmlns:xlink="http://www.w3.org/1999/xlink" style="isolation:isolate" viewBox="0 0 109.661 115.392" width="109.661" height="115.392"><defs><clipPath id="_clipPath_ktq4RQeyaETzHrWpNVcrjiNd7S1WyHUD"><rect width="109.661" height="115.392"/></clipPath></defs><g clip-path="url(#_clipPath_ktq4RQeyaETzHrWpNVcrjiNd7S1WyHUD)"><path d=" M 47.071 102.87 C 46.805 102.376 46.463 101.928 46.057 101.541 C 45.557 101.268 45.017 101.077 44.457 100.975 C 43.236 100.813 42.113 100.221 41.289 99.305 C 41.242 99.238 41.197 99.172 41.158 99.105 C 41.197 99.173 41.242 99.239 41.289 99.305 C 42.113 100.221 43.236 100.813 44.457 100.975 C 45.017 101.077 45.557 101.268 46.057 101.541 C 46.463 101.928 46.805 102.377 47.071 102.87 C 47.598 103.965 48.487 104.844 49.587 105.36 L 47.413 107.2 L 49.587 105.364 C 48.486 104.847 47.597 103.966 47.071 102.87 L 47.071 102.87 Z " fill="none"/><path d=" M 63.389 88.587 C 63.064 85.465 61.067 82.765 58.177 81.54 C 61.068 82.765 63.064 85.464 63.389 88.587 Z " fill="none"/><path d=" M 62.592 102.87 C 62.798 102.524 63.024 102.19 63.269 101.87 C 63.024 102.19 62.798 102.524 62.592 102.87 C 62.063 103.965 61.173 104.844 60.072 105.36 C 61.173 104.845 62.063 103.965 62.592 102.87 Z " fill="none"/><path d=" M 62.141 99.532 C 62.89 99.057 63.722 98.728 64.594 98.565 C 65.235 98.481 65.844 98.233 66.36 97.843 C 66.568 97.237 66.616 96.589 66.5 95.959 C 66.389 95.074 66.445 94.175 66.666 93.311 C 66.985 92.504 67.458 91.767 68.057 91.14 C 68.557 90.54 69.083 89.919 69.083 89.466 C 69.083 89.013 68.561 88.393 68.057 87.789 C 67.457 87.163 66.985 86.427 66.666 85.621 C 66.445 84.757 66.389 83.858 66.501 82.973 C 66.616 82.343 66.568 81.695 66.362 81.089 C 65.845 80.699 65.236 80.45 64.594 80.367 C 63.723 80.203 62.89 79.875 62.141 79.4 C 61.465 78.839 60.903 78.153 60.485 77.38 C 60.092 76.752 59.645 76.041 59.236 75.907 C 59.171 75.889 59.104 75.881 59.036 75.882 C 58.481 75.954 57.941 76.115 57.436 76.357 C 56.616 76.741 55.731 76.968 54.827 77.025 C 53.923 76.968 53.039 76.741 52.219 76.357 C 51.714 76.116 51.174 75.955 50.619 75.882 C 50.551 75.88 50.484 75.889 50.419 75.907 C 50.01 76.041 49.564 76.752 49.17 77.38 C 48.754 78.153 48.194 78.838 47.52 79.4 C 46.77 79.875 45.937 80.203 45.065 80.367 C 44.424 80.45 43.815 80.699 43.299 81.089 C 43.093 81.695 43.045 82.343 43.16 82.973 C 43.272 83.858 43.216 84.757 42.994 85.621 C 42.674 86.426 42.203 87.162 41.605 87.789 C 41.105 88.389 40.58 89.014 40.58 89.466 C 40.58 89.918 41.101 90.539 41.605 91.14 C 42.202 91.768 42.674 92.505 42.994 93.311 C 43.216 94.175 43.272 95.074 43.16 95.959 C 43.045 96.589 43.093 97.237 43.299 97.843 C 43.817 98.233 44.427 98.481 45.069 98.565 C 45.94 98.728 46.772 99.057 47.52 99.532 C 48.197 100.092 48.759 100.778 49.175 101.551 C 49.569 102.181 50.015 102.89 50.424 103.024 C 50.489 103.043 50.556 103.052 50.624 103.05 C 51.179 102.977 51.719 102.817 52.224 102.575 C 52.676 102.388 53.138 102.225 53.607 102.088 C 53.623 102.088 53.64 102.081 53.655 102.076 C 54.425 101.849 55.245 101.849 56.015 102.076 L 56.054 102.085 C 56.525 102.222 56.988 102.385 57.441 102.573 C 57.946 102.815 58.486 102.975 59.041 103.047 C 59.109 103.049 59.176 103.041 59.241 103.022 C 59.65 102.888 60.097 102.179 60.49 101.549 C 60.906 100.777 61.466 100.092 62.141 99.532 Z  M 54.831 100.552 C 50.347 100.552 46.303 97.851 44.587 93.708 C 42.871 89.565 43.819 84.796 46.99 81.625 C 50.161 78.454 54.93 77.506 59.073 79.222 C 63.216 80.938 65.917 84.982 65.917 89.466 C 65.909 95.585 60.95 100.544 54.831 100.552 L 54.831 100.552 Z " fill="none"/><path d=" M 69.24 99.726 L 73.987 103.738 L 73.987 103.738 L 69.24 99.726 L 69.24 99.726 Z " fill="none"/><path d=" M 2.487 82.006 L 2.487 82.018 C 2.497 84.963 4.463 87.544 7.3 88.335 L 7.3 13.935 L 2.487 13.935 L 2.487 82.006 Z " fill="rgb(225,160,166)"/><path d=" M 107.175 20.507 C 107.175 20.502 107.175 20.5 107.175 20.497 C 107.165 17.549 105.196 14.967 102.355 14.178 L 102.355 88.578 L 107.171 88.578 L 107.171 20.507 L 107.175 20.507 Z " fill="rgb(225,160,166)"/><path d=" M 109.658 20.52 L 109.658 20.507 C 109.662 18.106 108.71 15.801 107.013 14.103 C 105.315 12.405 103.011 11.452 100.61 11.455 L 2.484 11.455 L 2.484 9.055 C 2.528 5.459 5.456 2.567 9.053 2.567 C 12.649 2.567 15.577 5.459 15.621 9.055 C 15.621 9.741 16.177 10.297 16.863 10.297 C 17.549 10.297 18.105 9.741 18.105 9.055 C 17.979 4.148 13.964 0.235 9.055 0.235 C 4.146 0.235 0.131 4.148 0.005 9.055 L 0.005 12.7 L 0.005 12.714 L 0.005 81.992 L 0.005 82.006 C 0.004 84.407 0.958 86.71 2.655 88.408 C 4.353 90.106 6.656 91.06 9.057 91.059 L 35.469 91.059 C 36.141 91.04 36.677 90.489 36.677 89.816 C 36.677 89.144 36.141 88.593 35.469 88.574 L 9.052 88.574 C 8.46 88.575 7.87 88.495 7.3 88.336 C 4.46 87.547 2.49 84.966 2.48 82.018 L 2.48 82.006 L 2.48 13.94 L 100.602 13.94 C 101.193 13.939 101.782 14.019 102.352 14.178 C 105.193 14.967 107.162 17.55 107.171 20.498 C 107.171 20.498 107.171 20.498 107.171 20.509 L 107.171 88.575 L 74.189 88.575 C 73.503 88.575 72.947 89.131 72.947 89.817 C 72.947 90.503 73.503 91.059 74.189 91.059 L 107.179 91.059 L 107.179 93.464 C 107.179 97.092 104.238 100.033 100.61 100.033 C 96.982 100.033 94.041 97.092 94.041 93.464 C 94.041 93.02 93.804 92.61 93.42 92.388 C 93.036 92.167 92.562 92.167 92.178 92.388 C 91.794 92.61 91.557 93.02 91.557 93.464 C 91.661 98.388 95.682 102.326 100.607 102.326 C 105.532 102.326 109.553 98.388 109.657 93.464 L 109.657 89.816 L 109.657 89.801 L 109.657 20.52 L 109.658 20.52 Z " fill="rgb(108,91,124)"/><path d=" M 77.72 21.749 C 78.406 21.749 78.962 21.193 78.962 20.507 C 78.962 19.821 78.406 19.265 77.72 19.265 L 31.942 19.265 C 31.256 19.265 30.7 19.821 30.7 20.507 C 30.7 21.193 31.256 21.749 31.942 21.749 L 77.72 21.749 Z " fill="rgb(108,91,124)"/><path d=" M 23.579 26.687 C 23.579 27.373 24.134 27.928 24.82 27.929 L 84.841 27.929 C 85.513 27.91 86.049 27.359 86.049 26.687 C 86.049 26.014 85.513 25.463 84.841 25.444 L 24.82 25.444 C 24.491 25.444 24.175 25.575 23.942 25.808 C 23.709 26.042 23.579 26.358 23.579 26.687 Z " fill="rgb(108,91,124)"/><path d=" M 31.942 31.624 C 31.256 31.625 30.7 32.181 30.7 32.867 L 30.7 39.044 C 30.699 39.374 30.83 39.69 31.063 39.923 C 31.296 40.156 31.612 40.287 31.942 40.286 L 77.72 40.286 C 78.049 40.286 78.365 40.155 78.598 39.922 C 78.831 39.689 78.962 39.373 78.961 39.044 L 78.961 32.867 C 78.961 32.181 78.406 31.625 77.72 31.624 L 31.942 31.624 Z  M 76.478 37.8 L 33.184 37.8 L 33.184 34.108 L 76.478 34.108 L 76.478 37.8 Z " fill="rgb(108,91,124)"/><path d=" M 33.184 34.108 L 33.184 37.802 L 33.184 37.802 L 76.478 37.802 L 76.478 34.108 L 33.184 34.108 L 33.184 34.108 Z " fill="rgb(225,160,166)"/><path d=" M 11.655 45.225 C 11.655 45.555 11.786 45.871 12.02 46.104 C 12.253 46.337 12.57 46.468 12.9 46.467 L 96.765 46.467 C 97.451 46.467 98.007 45.911 98.007 45.225 C 98.007 44.539 97.451 43.983 96.765 43.983 L 12.9 43.983 C 12.57 43.982 12.253 44.112 12.02 44.345 C 11.786 44.578 11.655 44.895 11.655 45.225 Z " fill="rgb(108,91,124)"/><path d=" M 12.9 52.647 L 96.765 52.647 C 97.451 52.647 98.007 52.091 98.007 51.405 C 98.007 50.719 97.451 50.163 96.765 50.163 L 12.9 50.163 C 12.214 50.163 11.658 50.719 11.658 51.405 C 11.658 52.091 12.214 52.647 12.9 52.647 Z " fill="rgb(108,91,124)"/><path d=" M 12.9 58.826 L 96.765 58.826 C 97.451 58.826 98.007 58.27 98.007 57.584 C 98.007 56.898 97.451 56.342 96.765 56.342 L 12.9 56.342 C 12.214 56.342 11.658 56.898 11.658 57.584 C 11.658 58.27 12.214 58.826 12.9 58.826 Z " fill="rgb(108,91,124)"/><path d=" M 12.9 65.005 L 96.765 65.005 C 97.451 65.005 98.007 64.449 98.007 63.763 C 98.007 63.077 97.451 62.521 96.765 62.521 L 12.9 62.521 C 12.214 62.521 11.658 63.077 11.658 63.763 C 11.658 64.449 12.214 65.005 12.9 65.005 Z " fill="rgb(108,91,124)"/><path d=" M 12.9 71.185 L 96.765 71.185 C 97.437 71.166 97.973 70.615 97.973 69.943 C 97.973 69.27 97.437 68.719 96.765 68.7 L 12.9 68.7 C 12.228 68.719 11.692 69.27 11.692 69.943 C 11.692 70.615 12.228 71.166 12.9 71.185 Z " fill="rgb(108,91,124)"/><path d=" M 65.917 89.466 C 65.917 84.982 63.216 80.938 59.073 79.222 C 54.93 77.506 50.161 78.454 46.99 81.625 C 43.819 84.796 42.871 89.565 44.587 93.708 C 46.303 97.851 50.347 100.552 54.831 100.552 C 60.95 100.544 65.909 95.585 65.917 89.466 L 65.917 89.466 Z  M 54.831 98.066 C 50.196 98.064 46.397 94.39 46.239 89.758 C 46.082 85.126 49.623 81.203 54.247 80.886 C 58.871 80.57 62.914 83.974 63.389 88.584 C 63.418 88.873 63.434 89.167 63.434 89.463 C 63.431 94.213 59.581 98.064 54.831 98.069 L 54.831 98.066 Z " fill="rgb(108,91,124)"/><path d=" M 77.966 104.2 C 77.966 104.187 77.957 104.174 77.955 104.16 C 77.943 104.115 77.928 104.07 77.912 104.025 C 77.896 103.98 77.886 103.957 77.872 103.925 C 77.858 103.893 77.833 103.85 77.813 103.813 C 77.793 103.776 77.772 103.747 77.749 103.713 C 77.725 103.681 77.7 103.651 77.672 103.623 C 77.643 103.591 77.614 103.559 77.582 103.529 C 77.571 103.519 77.561 103.507 77.552 103.497 L 69.008 96.28 C 69 96.116 68.988 95.957 68.978 95.798 C 68.904 95.226 68.921 94.646 69.028 94.08 C 69.265 93.586 69.579 93.132 69.96 92.738 C 70.871 91.876 71.441 90.714 71.567 89.466 C 71.44 88.22 70.87 87.061 69.96 86.2 C 69.58 85.805 69.265 85.352 69.028 84.858 C 68.921 84.291 68.904 83.711 68.978 83.139 C 69.199 81.935 68.983 80.691 68.369 79.632 C 67.546 78.714 66.422 78.119 65.2 77.956 C 64.64 77.855 64.1 77.664 63.6 77.391 C 63.194 77.004 62.851 76.555 62.585 76.061 C 62.054 74.938 61.137 74.045 60 73.545 C 59.689 73.447 59.364 73.397 59.038 73.398 C 58.164 73.453 57.308 73.674 56.516 74.05 C 55.984 74.304 55.414 74.47 54.829 74.541 C 54.243 74.468 53.673 74.303 53.139 74.05 C 52.349 73.675 51.495 73.453 50.622 73.398 C 50.295 73.396 49.969 73.446 49.657 73.545 C 48.521 74.046 47.602 74.939 47.069 76.061 C 46.804 76.555 46.461 77.004 46.055 77.391 C 45.555 77.664 45.015 77.855 44.455 77.956 C 43.234 78.119 42.11 78.711 41.286 79.627 C 40.673 80.687 40.458 81.93 40.679 83.134 C 40.754 83.706 40.737 84.286 40.629 84.853 C 40.393 85.349 40.079 85.803 39.7 86.2 C 38.789 87.062 38.218 88.223 38.094 89.471 C 38.22 90.718 38.79 91.877 39.7 92.738 C 40.079 93.133 40.394 93.586 40.632 94.08 C 40.74 94.646 40.757 95.226 40.682 95.798 C 40.67 95.957 40.661 96.119 40.653 96.28 L 32.111 103.5 L 32.082 103.53 C 32.046 103.562 32.016 103.594 31.982 103.63 L 31.913 103.712 C 31.887 103.751 31.865 103.788 31.843 103.824 C 31.821 103.86 31.806 103.889 31.788 103.924 C 31.771 103.961 31.757 103.999 31.744 104.038 C 31.731 104.078 31.716 104.115 31.706 104.155 C 31.706 104.172 31.696 104.188 31.694 104.203 C 31.689 104.227 31.687 104.251 31.687 104.276 C 31.68 104.316 31.676 104.356 31.673 104.396 C 31.67 104.436 31.673 104.481 31.673 104.525 C 31.673 104.569 31.681 104.597 31.687 104.634 C 31.694 104.677 31.703 104.719 31.714 104.761 C 31.722 104.798 31.732 104.833 31.746 104.868 C 31.761 104.908 31.777 104.948 31.796 104.986 C 31.811 105.021 31.828 105.054 31.848 105.086 C 31.872 105.127 31.898 105.166 31.927 105.203 C 31.94 105.217 31.947 105.238 31.962 105.253 C 31.971 105.262 31.98 105.271 31.99 105.279 C 32.03 105.323 32.073 105.364 32.119 105.401 C 32.14 105.42 32.161 105.439 32.184 105.456 C 32.233 105.491 32.286 105.522 32.34 105.548 C 32.362 105.562 32.385 105.575 32.409 105.586 C 32.466 105.609 32.524 105.629 32.583 105.645 C 32.608 105.645 32.631 105.662 32.655 105.668 L 32.663 105.668 L 39.636 107.084 L 39.864 114.193 C 39.864 114.208 39.869 114.221 39.873 114.235 C 39.875 114.28 39.88 114.325 39.889 114.37 C 39.894 114.406 39.902 114.442 39.912 114.477 C 39.923 114.517 39.936 114.557 39.951 114.596 C 39.965 114.632 39.981 114.667 40 114.7 C 40.017 114.735 40.037 114.768 40.059 114.8 C 40.081 114.837 40.105 114.872 40.131 114.906 C 40.14 114.921 40.15 114.935 40.161 114.949 C 40.172 114.964 40.188 114.973 40.2 114.988 C 40.237 115.025 40.275 115.063 40.313 115.095 C 40.351 115.127 40.369 115.142 40.396 115.162 C 40.439 115.19 40.483 115.216 40.529 115.239 C 40.557 115.258 40.587 115.274 40.618 115.287 C 40.671 115.308 40.726 115.326 40.782 115.341 C 40.806 115.349 40.831 115.358 40.856 115.364 C 40.933 115.38 41.012 115.388 41.091 115.389 L 41.109 115.389 L 41.114 115.389 C 41.126 115.391 41.137 115.391 41.149 115.389 C 41.167 115.389 41.183 115.389 41.201 115.389 C 41.256 115.384 41.311 115.377 41.365 115.366 C 41.395 115.359 41.423 115.351 41.45 115.343 C 41.496 115.331 41.54 115.315 41.584 115.297 C 41.613 115.284 41.643 115.273 41.673 115.257 C 41.712 115.237 41.749 115.214 41.785 115.189 C 41.815 115.171 41.844 115.151 41.872 115.13 C 41.884 115.12 41.9 115.113 41.912 115.103 L 54.554 104.423 C 54.646 104.408 54.739 104.399 54.832 104.397 C 54.925 104.399 55.019 104.408 55.111 104.423 L 67.75 115.1 C 67.764 115.11 67.778 115.117 67.791 115.127 C 67.818 115.149 67.847 115.169 67.877 115.186 C 67.913 115.211 67.95 115.234 67.989 115.254 C 68.017 115.27 68.048 115.281 68.077 115.294 C 68.12 115.313 68.165 115.329 68.211 115.34 C 68.239 115.348 68.265 115.356 68.294 115.363 C 68.35 115.374 68.406 115.381 68.462 115.386 C 68.48 115.386 68.494 115.386 68.511 115.386 C 68.523 115.387 68.536 115.387 68.548 115.386 L 68.548 115.386 L 68.565 115.386 C 68.645 115.385 68.724 115.377 68.802 115.361 C 68.83 115.355 68.85 115.346 68.877 115.338 C 68.933 115.324 68.988 115.306 69.042 115.284 C 69.073 115.271 69.102 115.251 69.133 115.236 C 69.177 115.213 69.22 115.187 69.261 115.159 C 69.291 115.14 69.318 115.114 69.346 115.092 C 69.385 115.058 69.422 115.023 69.457 114.985 C 69.469 114.97 69.487 114.961 69.498 114.946 C 69.509 114.931 69.516 114.916 69.53 114.903 C 69.556 114.869 69.579 114.834 69.601 114.797 C 69.621 114.765 69.642 114.729 69.659 114.697 C 69.676 114.665 69.691 114.625 69.706 114.59 C 69.721 114.555 69.733 114.51 69.745 114.471 C 69.757 114.432 69.76 114.398 69.769 114.364 C 69.778 114.33 69.784 114.275 69.786 114.229 C 69.786 114.215 69.786 114.202 69.786 114.187 L 70.02 107.078 L 77 105.663 L 77.007 105.663 C 77.039 105.655 77.065 105.642 77.096 105.635 C 77.149 105.621 77.202 105.603 77.253 105.583 C 77.282 105.57 77.309 105.55 77.337 105.535 C 77.385 105.511 77.432 105.484 77.476 105.454 C 77.503 105.435 77.529 105.413 77.553 105.39 C 77.595 105.356 77.634 105.318 77.67 105.277 C 77.682 105.269 77.692 105.259 77.701 105.248 C 77.716 105.229 77.73 105.209 77.742 105.188 C 77.768 105.157 77.791 105.123 77.811 105.088 C 77.833 105.053 77.854 105.016 77.872 104.979 C 77.889 104.944 77.904 104.909 77.917 104.879 C 77.931 104.838 77.943 104.797 77.953 104.755 C 77.962 104.719 77.97 104.683 77.976 104.647 C 77.984 104.604 77.988 104.56 77.989 104.516 C 77.991 104.479 77.991 104.443 77.989 104.406 C 77.988 104.361 77.984 104.316 77.976 104.271 C 77.968 104.24 77.972 104.219 77.966 104.2 Z  M 42.266 111.545 L 42.089 106.018 C 42.089 105.988 42.08 105.96 42.077 105.93 C 42.077 105.883 42.067 105.836 42.058 105.789 C 42.034 105.713 42.009 105.637 41.982 105.562 C 41.965 105.524 41.946 105.487 41.925 105.452 C 41.906 105.418 41.888 105.384 41.868 105.352 C 41.848 105.32 41.816 105.287 41.789 105.252 C 41.762 105.217 41.741 105.193 41.714 105.165 C 41.687 105.137 41.649 105.113 41.614 105.085 C 41.579 105.057 41.557 105.036 41.525 105.016 C 41.487 104.993 41.448 104.971 41.408 104.952 C 41.377 104.934 41.346 104.919 41.313 104.905 C 41.265 104.886 41.216 104.871 41.166 104.86 C 41.141 104.85 41.116 104.841 41.09 104.835 L 35.668 103.735 L 41.158 99.1 C 41.197 99.168 41.242 99.234 41.289 99.3 C 42.113 100.216 43.236 100.808 44.457 100.97 C 45.017 101.072 45.557 101.263 46.057 101.536 C 46.463 101.923 46.805 102.371 47.071 102.865 C 47.598 103.96 48.487 104.839 49.587 105.355 L 47.413 107.2 L 42.266 111.545 Z  M 59.236 103.026 C 59.171 103.044 59.104 103.053 59.036 103.051 C 58.481 102.979 57.941 102.819 57.436 102.577 C 56.983 102.389 56.52 102.226 56.049 102.089 L 56.01 102.08 C 55.24 101.853 54.42 101.853 53.65 102.08 C 53.635 102.085 53.618 102.087 53.602 102.092 C 53.133 102.229 52.671 102.392 52.219 102.579 C 51.714 102.821 51.174 102.981 50.619 103.054 C 50.551 103.056 50.484 103.047 50.419 103.028 C 50.01 102.894 49.564 102.185 49.17 101.555 C 48.754 100.782 48.192 100.096 47.515 99.536 C 46.767 99.061 45.935 98.733 45.064 98.569 C 44.422 98.485 43.812 98.237 43.294 97.847 C 43.088 97.241 43.04 96.593 43.155 95.963 C 43.268 95.078 43.212 94.179 42.989 93.315 C 42.669 92.509 42.197 91.772 41.6 91.144 C 41.1 90.544 40.575 89.923 40.575 89.47 C 40.575 89.017 41.096 88.397 41.6 87.793 C 42.198 87.166 42.669 86.43 42.989 85.625 C 43.212 84.761 43.268 83.862 43.155 82.977 C 43.04 82.347 43.088 81.699 43.294 81.093 C 43.81 80.703 44.419 80.454 45.06 80.371 C 45.934 80.206 46.769 79.877 47.52 79.4 C 48.196 78.839 48.758 78.153 49.175 77.38 C 49.569 76.752 50.015 76.041 50.424 75.907 C 50.489 75.889 50.556 75.881 50.624 75.882 C 51.179 75.955 51.719 76.116 52.224 76.357 C 53.044 76.741 53.928 76.968 54.832 77.025 C 55.736 76.968 56.621 76.741 57.441 76.357 C 57.946 76.115 58.486 75.954 59.041 75.882 C 59.109 75.88 59.176 75.889 59.241 75.907 C 59.65 76.041 60.097 76.752 60.49 77.38 C 60.908 78.153 61.47 78.839 62.146 79.4 C 62.895 79.875 63.728 80.203 64.599 80.367 C 65.241 80.45 65.85 80.699 66.367 81.089 C 66.573 81.695 66.621 82.343 66.506 82.973 C 66.394 83.858 66.45 84.757 66.671 85.621 C 66.99 86.427 67.462 87.163 68.062 87.789 C 68.562 88.389 69.088 89.014 69.088 89.466 C 69.088 89.918 68.566 90.539 68.062 91.14 C 67.463 91.767 66.99 92.504 66.671 93.311 C 66.45 94.175 66.394 95.074 66.505 95.959 C 66.621 96.589 66.573 97.237 66.365 97.843 C 65.849 98.233 65.24 98.481 64.599 98.565 C 63.727 98.728 62.895 99.056 62.146 99.532 C 61.469 100.092 60.907 100.778 60.49 101.551 C 60.092 102.181 59.645 102.89 59.236 103.024 L 59.236 103.026 Z  M 73.987 103.74 L 68.565 104.84 C 68.513 104.853 68.465 104.871 68.415 104.888 C 68.398 104.895 68.38 104.897 68.363 104.904 C 68.297 104.929 68.234 104.961 68.174 104.999 C 68.166 105.005 68.159 105.006 68.151 105.012 C 68.092 105.049 68.037 105.093 67.986 105.141 C 67.977 105.145 67.969 105.151 67.962 105.158 C 67.916 105.203 67.873 105.251 67.835 105.303 C 67.826 105.315 67.813 105.328 67.801 105.341 C 67.772 105.386 67.745 105.436 67.718 105.483 C 67.707 105.509 67.691 105.53 67.679 105.556 C 67.661 105.601 67.645 105.647 67.631 105.694 C 67.622 105.727 67.611 105.757 67.605 105.786 C 67.593 105.836 67.586 105.887 67.582 105.938 C 67.582 105.966 67.573 105.99 67.573 106.018 L 67.393 111.545 L 60.072 105.362 C 61.173 104.847 62.063 103.967 62.592 102.872 C 62.798 102.526 63.025 102.192 63.27 101.872 C 63.367 101.748 63.479 101.636 63.603 101.54 C 64.028 101.298 64.489 101.127 64.969 101.033 L 65.203 100.974 C 66.424 100.812 67.547 100.22 68.37 99.304 C 68.416 99.237 68.461 99.169 68.503 99.104 L 69.24 99.726 L 73.987 103.738 L 73.987 103.74 Z " fill="rgb(108,91,124)"/><path d=" M 47.071 102.872 C 46.805 102.378 46.463 101.928 46.057 101.541 C 45.557 101.268 45.017 101.077 44.457 100.975 C 43.236 100.813 42.113 100.221 41.289 99.305 C 41.242 99.238 41.199 99.172 41.158 99.105 L 35.672 103.739 L 41.094 104.839 C 41.12 104.845 41.145 104.854 41.17 104.864 C 41.22 104.875 41.269 104.89 41.317 104.909 C 41.35 104.922 41.381 104.938 41.412 104.956 C 41.452 104.975 41.491 104.996 41.529 105.02 C 41.561 105.04 41.588 105.067 41.618 105.089 C 41.648 105.111 41.686 105.142 41.718 105.169 C 41.75 105.196 41.767 105.227 41.793 105.256 C 41.819 105.285 41.847 105.318 41.872 105.356 C 41.897 105.394 41.909 105.42 41.929 105.456 C 41.95 105.491 41.969 105.528 41.985 105.566 C 42.001 105.604 42.015 105.643 42.026 105.682 C 42.04 105.718 42.051 105.755 42.061 105.793 C 42.07 105.84 42.075 105.887 42.08 105.934 C 42.08 105.964 42.09 105.991 42.092 106.022 L 42.269 111.549 L 47.416 107.202 L 49.59 105.365 C 48.488 104.849 47.598 103.969 47.071 102.872 L 47.071 102.872 Z " fill="rgb(225,160,166)"/><path d=" M 68.5 99.1 C 68.458 99.168 68.413 99.234 68.366 99.3 C 67.543 100.217 66.42 100.809 65.199 100.97 L 64.966 101.029 C 64.486 101.123 64.024 101.294 63.599 101.536 C 63.475 101.633 63.364 101.745 63.266 101.868 C 63.021 102.188 62.795 102.522 62.589 102.868 C 62.059 103.962 61.169 104.84 60.069 105.356 L 67.39 111.539 L 67.57 106.012 C 67.57 105.985 67.578 105.96 67.579 105.932 C 67.583 105.881 67.59 105.831 67.602 105.781 C 67.608 105.751 67.619 105.722 67.627 105.69 C 67.643 105.643 67.655 105.595 67.675 105.55 C 67.688 105.525 67.703 105.503 67.715 105.478 C 67.742 105.431 67.769 105.378 67.798 105.337 C 67.81 105.322 67.823 105.31 67.832 105.297 C 67.871 105.246 67.913 105.198 67.958 105.152 L 67.982 105.136 C 68.033 105.088 68.088 105.044 68.148 105.007 C 68.156 105.001 68.163 104.999 68.171 104.993 C 68.231 104.955 68.294 104.924 68.36 104.9 C 68.375 104.892 68.395 104.889 68.412 104.882 C 68.461 104.865 68.512 104.847 68.562 104.834 L 73.984 103.734 L 73.984 103.734 L 69.24 99.726 L 68.5 99.1 Z " fill="rgb(225,160,166)"/><path d=" M 63.389 88.587 C 62.913 83.947 58.825 80.533 54.175 80.891 C 49.524 81.249 46.007 85.248 46.245 89.905 C 46.484 94.563 50.391 98.182 55.054 98.063 C 59.716 97.944 63.434 94.13 63.434 89.466 C 63.434 89.172 63.419 88.879 63.389 88.587 L 63.389 88.587 Z " fill="rgb(225,160,166)"/></g></svg>