<?xml version="1.0" standalone="no"?><!-- Generator: Gravit.io --><svg xmlns="http://www.w3.org/2000/svg" xmlns:xlink="http://www.w3.org/1999/xlink" style="isolation:isolate" viewBox="0 0 112.072 123.396" width="112.072" height="123.396"><defs><clipPath id="_clipPath_euJ2gncNoEwbx18lEBjcByR1IopXd0Su"><rect width="112.072" height="123.396"/></clipPath></defs><g clip-path="url(#_clipPath_euJ2gncNoEwbx18lEBjcByR1IopXd0Su)"><g id="Group"><path d=" M 70.467 49.362 C 71.521 48.308 72.113 46.878 72.112 45.388 L 72.112 28.035 C 72.11 27.997 72.107 27.96 72.101 27.923 C 72.024 26.206 70.998 24.674 69.441 23.948 C 67.883 23.222 66.051 23.422 64.686 24.466 C 64.023 23.338 62.913 22.545 61.631 22.284 C 60.348 22.024 59.016 22.321 57.966 23.101 C 57.165 21.613 55.622 20.675 53.933 20.647 C 53.182 20.65 52.444 20.843 51.788 21.209 L 51.788 10.137 C 51.788 7.58 49.716 5.508 47.159 5.508 C 44.602 5.508 42.53 7.58 42.53 10.137 L 42.53 34.186 C 42.524 34.903 41.939 35.479 41.222 35.475 C 40.87 35.476 40.533 35.331 40.291 35.075 C 40.286 35.071 40.282 35.067 40.278 35.062 C 40.272 35.057 40.267 35.051 40.263 35.045 L 36.463 31.309 C 34.649 29.539 31.75 29.557 29.958 31.349 C 28.166 33.141 28.149 36.041 29.919 37.854 L 42.851 50.8 C 42.13 52.133 42.163 53.746 42.939 55.048 C 43.714 56.35 45.118 57.147 46.633 57.147 L 67.941 57.147 C 69.804 57.147 71.456 55.947 72.031 54.175 C 72.606 52.403 71.975 50.461 70.467 49.367 L 70.467 49.362 Z  M 31.671 36.1 C 31.13 35.557 30.92 34.766 31.121 34.026 C 31.321 33.287 31.9 32.71 32.641 32.513 C 33.382 32.316 34.171 32.53 34.712 33.073 L 38.521 36.817 L 38.533 36.827 C 39.608 37.92 41.237 38.256 42.657 37.678 C 44.077 37.1 45.007 35.722 45.014 34.189 L 45.014 10.137 C 45.014 8.952 45.975 7.991 47.16 7.991 C 48.345 7.991 49.306 8.952 49.306 10.137 L 49.306 28.229 C 49.306 28.672 49.543 29.082 49.926 29.304 C 50.31 29.525 50.784 29.525 51.168 29.304 C 51.551 29.082 51.788 28.672 51.788 28.229 L 51.788 25.387 C 51.746 24.594 52.145 23.842 52.826 23.433 C 53.507 23.023 54.359 23.023 55.04 23.433 C 55.721 23.842 56.12 24.594 56.078 25.387 L 56.078 29.225 C 56.097 29.897 56.648 30.433 57.32 30.433 C 57.993 30.433 58.544 29.897 58.563 29.225 L 58.563 26.825 C 58.563 26.059 58.972 25.351 59.635 24.967 C 60.299 24.584 61.117 24.584 61.781 24.967 C 62.444 25.351 62.853 26.059 62.853 26.825 L 62.853 30.664 C 62.872 31.336 63.423 31.872 64.095 31.872 C 64.768 31.872 65.319 31.336 65.338 30.664 L 65.338 28.141 C 65.34 26.956 66.301 25.997 67.486 25.999 C 68.671 26.001 69.63 26.962 69.628 28.147 L 69.628 45.388 C 69.626 47.127 68.217 48.535 66.478 48.537 L 46.633 48.537 C 45.928 48.537 45.234 48.711 44.613 49.044 L 31.671 36.1 Z  M 67.941 54.656 L 46.633 54.656 C 45.645 54.633 44.857 53.825 44.857 52.838 C 44.857 51.85 45.645 51.042 46.633 51.019 L 67.941 51.019 C 68.601 51.004 69.217 51.347 69.552 51.916 C 69.886 52.485 69.886 53.19 69.552 53.759 C 69.217 54.328 68.601 54.671 67.941 54.656 L 67.941 54.656 Z " fill="rgb(108,91,124)"/><path d=" M 69.628 28.147 L 69.628 45.388 C 69.626 47.127 68.217 48.535 66.478 48.537 L 46.633 48.537 C 45.928 48.537 45.234 48.711 44.613 49.044 L 31.671 36.1 C 31.13 35.557 30.92 34.766 31.121 34.026 C 31.321 33.287 31.9 32.71 32.641 32.513 C 33.382 32.316 34.171 32.53 34.712 33.073 L 38.521 36.817 L 38.533 36.827 C 39.608 37.92 41.237 38.256 42.657 37.678 C 44.077 37.1 45.007 35.722 45.014 34.189 L 45.014 10.137 C 45.014 8.952 45.975 7.991 47.16 7.991 C 48.345 7.991 49.306 8.952 49.306 10.137 L 49.306 28.229 C 49.306 28.672 49.543 29.082 49.926 29.304 C 50.31 29.525 50.784 29.525 51.168 29.304 C 51.551 29.082 51.788 28.672 51.788 28.229 L 51.788 25.387 C 51.746 24.594 52.145 23.842 52.826 23.433 C 53.507 23.023 54.359 23.023 55.04 23.433 C 55.721 23.842 56.12 24.594 56.078 25.387 L 56.078 29.225 C 56.097 29.897 56.648 30.433 57.32 30.433 C 57.993 30.433 58.544 29.897 58.563 29.225 L 58.563 26.825 C 58.563 26.059 58.972 25.351 59.635 24.967 C 60.299 24.584 61.117 24.584 61.781 24.967 C 62.444 25.351 62.853 26.059 62.853 26.825 L 62.853 30.664 C 62.872 31.336 63.423 31.872 64.095 31.872 C 64.768 31.872 65.319 31.336 65.338 30.664 L 65.338 28.141 C 65.34 26.956 66.301 25.997 67.486 25.999 C 68.671 26.001 69.63 26.962 69.628 28.147 L 69.628 28.147 Z " fill="rgb(236,157,165)"/><path d=" M 43.731 3.562 C 43.966 4.207 44.679 4.539 45.323 4.305 C 45.968 4.07 46.301 3.357 46.066 2.712 L 45.376 0.818 C 45.132 0.187 44.428 -0.133 43.792 0.098 C 43.156 0.329 42.822 1.026 43.04 1.667 L 43.731 3.562 Z " fill="rgb(108,91,124)"/><path d=" M 39.064 6.113 L 40.81 7.122 C 40.999 7.23 41.212 7.288 41.43 7.288 C 41.992 7.288 42.484 6.911 42.629 6.368 C 42.775 5.825 42.538 5.252 42.052 4.971 L 40.307 3.962 C 39.923 3.74 39.449 3.74 39.065 3.962 C 38.68 4.183 38.444 4.593 38.443 5.037 C 38.443 5.481 38.68 5.891 39.064 6.113 L 39.064 6.113 Z " fill="rgb(108,91,124)"/><path d=" M 38.658 12.093 C 38.731 12.093 38.804 12.087 38.876 12.074 L 40.862 11.724 C 41.528 11.596 41.968 10.957 41.85 10.289 C 41.732 9.621 41.101 9.171 40.431 9.278 L 38.445 9.627 C 37.809 9.736 37.363 10.315 37.418 10.958 C 37.474 11.601 38.013 12.094 38.658 12.093 Z " fill="rgb(108,91,124)"/><path d=" M 52.449 10.286 C 52.392 10.61 52.466 10.944 52.656 11.214 C 52.845 11.484 53.133 11.667 53.458 11.724 L 55.444 12.074 C 55.515 12.087 55.587 12.093 55.659 12.093 C 56.301 12.089 56.835 11.598 56.89 10.958 C 56.946 10.318 56.506 9.742 55.874 9.627 L 53.888 9.278 C 53.212 9.159 52.568 9.61 52.449 10.286 Z " fill="rgb(108,91,124)"/><path d=" M 52.889 7.288 C 53.106 7.288 53.32 7.231 53.508 7.122 L 55.254 6.114 C 55.848 5.771 56.052 5.011 55.709 4.417 C 55.366 3.823 54.606 3.619 54.012 3.962 L 52.267 4.97 C 51.78 5.251 51.542 5.825 51.688 6.368 C 51.834 6.911 52.326 7.289 52.889 7.288 Z " fill="rgb(108,91,124)"/><path d=" M 49 4.3 C 49.136 4.351 49.281 4.376 49.426 4.376 C 49.948 4.374 50.413 4.048 50.593 3.558 L 51.282 1.664 C 51.512 1.021 51.18 0.312 50.538 0.079 C 49.896 -0.155 49.185 0.173 48.948 0.814 L 48.259 2.714 C 48.027 3.357 48.358 4.066 49 4.3 Z " fill="rgb(108,91,124)"/><path d=" M 46.531 57.9 C 45.845 57.901 45.29 58.456 45.289 59.142 L 45.289 122.156 C 45.308 122.828 45.859 123.364 46.532 123.364 C 47.204 123.364 47.755 122.828 47.774 122.156 L 47.774 59.141 C 47.774 58.812 47.643 58.496 47.41 58.263 C 47.176 58.03 46.86 57.9 46.531 57.9 L 46.531 57.9 Z " fill="rgb(108,91,124)"/><path d=" M 68.045 57.9 C 67.715 57.899 67.398 58.029 67.165 58.262 C 66.931 58.495 66.8 58.811 66.8 59.141 L 66.8 122.155 C 66.819 122.827 67.369 123.362 68.042 123.362 C 68.714 123.362 69.264 122.827 69.283 122.155 L 69.283 59.141 C 69.283 58.457 68.729 57.902 68.045 57.9 L 68.045 57.9 Z " fill="rgb(108,91,124)"/><path d=" M 38.957 78.272 C 39.905 77.289 40.435 75.977 40.437 74.611 L 40.437 58.578 C 40.435 58.544 40.43 58.511 40.423 58.478 C 40.351 56.875 39.406 55.441 37.96 54.745 C 36.515 54.048 34.804 54.202 33.506 55.144 C 32.873 54.125 31.847 53.413 30.672 53.174 C 29.496 52.936 28.274 53.192 27.294 53.884 C 26.525 52.531 25.098 51.685 23.541 51.659 C 22.884 51.663 22.238 51.821 21.654 52.121 L 21.654 42.037 C 21.654 39.622 19.696 37.664 17.281 37.664 C 14.866 37.664 12.908 39.622 12.908 42.037 L 12.908 64.263 C 12.901 64.872 12.402 65.361 11.793 65.357 C 11.494 65.358 11.207 65.237 11 65.02 C 10.995 65.014 10.988 65.01 10.983 65.005 L 10.973 64.993 L 7.46 61.539 C 5.753 59.832 2.984 59.832 1.277 61.539 C -0.43 63.246 -0.43 66.015 1.277 67.722 L 13.185 79.629 C 12.883 80.206 12.725 80.848 12.725 81.499 C 12.727 83.748 14.551 85.57 16.8 85.571 L 36.486 85.571 C 38.232 85.574 39.784 84.462 40.344 82.809 C 40.904 81.155 40.345 79.329 38.957 78.271 L 38.957 78.272 Z  M 3.033 65.966 C 2.297 65.226 2.299 64.03 3.039 63.294 C 3.779 62.558 4.975 62.56 5.711 63.3 L 9.232 66.76 L 9.249 66.775 C 10.272 67.808 11.816 68.123 13.162 67.572 C 14.507 67.021 15.387 65.714 15.392 64.26 L 15.392 42.037 C 15.376 41.352 15.733 40.712 16.323 40.365 C 16.914 40.018 17.647 40.018 18.238 40.365 C 18.828 40.712 19.185 41.352 19.169 42.037 L 19.169 58.754 C 19.188 59.426 19.739 59.962 20.412 59.962 C 21.084 59.962 21.635 59.426 21.654 58.754 L 21.654 56.124 C 21.615 55.424 21.965 54.76 22.565 54.399 C 23.166 54.037 23.916 54.037 24.517 54.399 C 25.117 54.76 25.467 55.424 25.428 56.124 L 25.428 59.674 C 25.428 60.118 25.665 60.528 26.049 60.75 C 26.433 60.971 26.907 60.971 27.291 60.75 C 27.675 60.528 27.912 60.118 27.912 59.674 L 27.912 57.451 C 27.936 56.425 28.774 55.605 29.801 55.605 C 30.827 55.605 31.665 56.425 31.689 57.451 L 31.689 61 C 31.689 61.686 32.245 62.242 32.931 62.242 C 33.617 62.242 34.173 61.686 34.173 61 L 34.173 58.665 C 34.201 57.638 35.043 56.821 36.07 56.826 C 37.097 56.83 37.933 57.654 37.952 58.681 L 37.952 74.611 C 37.95 76.166 36.69 77.427 35.135 77.429 L 16.8 77.429 C 16.156 77.428 15.521 77.582 14.949 77.878 L 3.033 65.966 Z  M 36.486 83.087 L 16.8 83.087 C 15.939 83.065 15.252 82.361 15.252 81.5 C 15.252 80.638 15.939 79.934 16.8 79.912 L 36.486 79.912 C 37.063 79.898 37.602 80.197 37.894 80.694 C 38.187 81.191 38.187 81.808 37.894 82.305 C 37.602 82.802 37.063 83.101 36.486 83.087 L 36.486 83.087 Z " fill="rgb(108,91,124)"/><path d=" M 37.952 58.681 L 37.952 74.611 C 37.95 76.166 36.69 77.427 35.135 77.429 L 16.8 77.429 C 16.156 77.428 15.521 77.582 14.949 77.878 L 3.033 65.966 C 2.297 65.226 2.299 64.03 3.039 63.294 C 3.779 62.558 4.975 62.56 5.711 63.3 L 9.232 66.76 L 9.249 66.775 C 10.272 67.808 11.816 68.123 13.162 67.572 C 14.507 67.021 15.387 65.714 15.392 64.26 L 15.392 42.037 C 15.376 41.352 15.733 40.712 16.323 40.365 C 16.914 40.018 17.647 40.018 18.238 40.365 C 18.828 40.712 19.185 41.352 19.169 42.037 L 19.169 58.755 C 19.188 59.427 19.739 59.963 20.412 59.963 C 21.084 59.963 21.635 59.427 21.654 58.755 L 21.654 56.124 C 21.615 55.424 21.965 54.76 22.565 54.399 C 23.166 54.037 23.916 54.037 24.517 54.399 C 25.117 54.76 25.467 55.424 25.428 56.124 L 25.428 59.674 C 25.428 60.118 25.665 60.528 26.049 60.75 C 26.433 60.971 26.907 60.971 27.291 60.75 C 27.675 60.528 27.912 60.118 27.912 59.674 L 27.912 57.451 C 27.936 56.425 28.774 55.605 29.801 55.605 C 30.827 55.605 31.665 56.425 31.689 57.451 L 31.689 61 C 31.689 61.686 32.245 62.242 32.931 62.242 C 33.617 62.242 34.173 61.686 34.173 61 L 34.173 58.665 C 34.201 57.638 35.043 56.821 36.07 56.826 C 37.097 56.83 37.933 57.654 37.952 58.681 Z " fill="rgb(236,157,165)"/><path d=" M 16.7 86.082 C 16.37 86.082 16.054 86.213 15.821 86.446 C 15.588 86.679 15.458 86.995 15.458 87.325 L 15.458 122.155 C 15.477 122.827 16.028 123.363 16.7 123.363 C 17.373 123.363 17.924 122.827 17.943 122.155 L 17.943 87.325 C 17.943 86.995 17.812 86.679 17.579 86.446 C 17.346 86.213 17.03 86.082 16.7 86.082 L 16.7 86.082 Z " fill="rgb(108,91,124)"/><path d=" M 36.581 86.082 C 35.895 86.083 35.339 86.639 35.339 87.325 L 35.339 122.155 C 35.339 122.841 35.895 123.397 36.581 123.397 C 37.267 123.397 37.823 122.841 37.823 122.155 L 37.823 87.325 C 37.824 86.995 37.693 86.679 37.46 86.446 C 37.227 86.213 36.911 86.082 36.581 86.082 L 36.581 86.082 Z " fill="rgb(108,91,124)"/><path d=" M 110.473 78.272 C 111.419 77.288 111.947 75.976 111.948 74.611 L 111.948 58.578 C 111.948 58.543 111.94 58.509 111.938 58.478 C 111.866 56.875 110.92 55.441 109.474 54.744 C 108.029 54.048 106.317 54.201 105.019 55.144 C 104.386 54.125 103.36 53.413 102.185 53.174 C 101.009 52.936 99.787 53.192 98.807 53.884 C 98.038 52.53 96.61 51.684 95.053 51.659 C 94.396 51.663 93.75 51.821 93.166 52.121 L 93.166 42.037 C 93.166 40.475 92.333 39.031 90.98 38.25 C 89.626 37.469 87.96 37.469 86.606 38.25 C 85.253 39.031 84.42 40.475 84.42 42.037 L 84.42 64.263 C 84.419 64.554 84.302 64.833 84.095 65.037 C 83.884 65.243 83.599 65.358 83.304 65.357 C 83.005 65.359 82.719 65.237 82.513 65.02 C 82.507 65.014 82.499 65.01 82.496 65.005 C 82.493 65 82.49 64.994 82.485 64.993 L 78.973 61.539 C 77.266 59.831 74.497 59.831 72.79 61.539 C 71.082 63.246 71.082 66.014 72.789 67.722 L 84.7 79.629 C 84.044 80.89 84.094 82.403 84.832 83.618 C 85.571 84.832 86.89 85.573 88.312 85.571 L 108 85.571 C 109.746 85.574 111.299 84.463 111.859 82.81 C 112.42 81.157 111.863 79.33 110.475 78.271 L 110.473 78.272 Z  M 74.546 65.966 C 73.81 65.227 73.812 64.031 74.552 63.295 C 75.291 62.558 76.487 62.561 77.223 63.3 L 80.744 66.76 C 80.744 66.766 80.756 66.767 80.761 66.775 C 81.784 67.809 83.329 68.124 84.674 67.573 C 86.02 67.022 86.901 65.714 86.905 64.26 L 86.905 42.037 C 86.905 41.362 87.265 40.739 87.849 40.402 C 88.433 40.065 89.153 40.065 89.737 40.402 C 90.321 40.739 90.681 41.362 90.681 42.037 L 90.681 58.754 C 90.7 59.426 91.251 59.962 91.923 59.962 C 92.596 59.962 93.147 59.426 93.166 58.754 L 93.166 56.129 C 93.13 55.431 93.482 54.77 94.081 54.411 C 94.68 54.051 95.429 54.051 96.028 54.411 C 96.627 54.77 96.979 55.431 96.943 56.129 L 96.943 59.679 C 96.943 60.123 97.18 60.533 97.564 60.755 C 97.948 60.976 98.422 60.976 98.806 60.755 C 99.19 60.533 99.427 60.123 99.427 59.679 L 99.427 57.445 C 99.43 56.402 100.278 55.558 101.321 55.561 C 102.364 55.564 103.208 56.412 103.205 57.455 L 103.205 61 C 103.224 61.672 103.774 62.207 104.447 62.207 C 105.119 62.207 105.669 61.672 105.688 61 L 105.688 58.661 C 105.716 57.635 106.559 56.82 107.585 56.825 C 108.612 56.831 109.445 57.655 109.463 58.681 L 109.463 74.611 C 109.461 76.165 108.202 77.426 106.648 77.429 L 88.31 77.429 C 87.666 77.429 87.031 77.583 86.458 77.878 L 74.546 65.966 Z  M 108 83.087 L 88.309 83.087 C 87.732 83.101 87.193 82.802 86.901 82.305 C 86.608 81.808 86.608 81.191 86.901 80.694 C 87.193 80.197 87.732 79.898 88.309 79.912 L 108 79.912 C 108.577 79.898 109.116 80.197 109.408 80.694 C 109.701 81.191 109.701 81.808 109.408 82.305 C 109.116 82.802 108.577 83.101 108 83.087 L 108 83.087 Z " fill="rgb(108,91,124)"/><path d=" M 109.341 58.681 L 109.341 74.611 C 109.34 76.165 108.081 77.426 106.527 77.429 L 88.188 77.429 C 87.544 77.429 86.909 77.583 86.337 77.878 L 74.425 65.966 C 73.689 65.227 73.691 64.031 74.43 63.295 C 75.17 62.558 76.366 62.561 77.102 63.3 L 80.623 66.76 C 80.623 66.766 80.635 66.768 80.64 66.776 C 81.663 67.809 83.208 68.123 84.553 67.572 C 85.899 67.021 86.779 65.714 86.784 64.26 L 86.784 42.037 C 86.784 41.362 87.144 40.739 87.728 40.402 C 88.312 40.065 89.032 40.065 89.616 40.402 C 90.2 40.739 90.56 41.362 90.56 42.037 L 90.56 58.754 C 90.579 59.426 91.13 59.962 91.802 59.962 C 92.475 59.962 93.026 59.426 93.045 58.754 L 93.045 56.129 C 93.009 55.431 93.361 54.77 93.96 54.411 C 94.559 54.051 95.308 54.051 95.907 54.411 C 96.506 54.77 96.858 55.431 96.822 56.129 L 96.822 59.679 C 96.822 60.123 97.059 60.533 97.443 60.755 C 97.827 60.976 98.301 60.976 98.685 60.755 C 99.069 60.533 99.306 60.123 99.306 59.679 L 99.306 57.445 C 99.309 56.402 100.157 55.558 101.2 55.561 C 102.243 55.564 103.087 56.412 103.084 57.455 L 103.084 61 C 103.103 61.672 103.653 62.207 104.325 62.207 C 104.998 62.207 105.548 61.672 105.567 61 L 105.567 58.661 C 105.572 57.619 106.422 56.778 107.464 56.784 C 108.506 56.79 109.346 57.639 109.341 58.681 L 109.341 58.681 Z " fill="rgb(236,157,165)"/><path d=" M 88.213 86.082 C 87.883 86.082 87.567 86.213 87.334 86.446 C 87.101 86.679 86.971 86.995 86.971 87.325 L 86.971 122.155 C 86.99 122.827 87.54 123.362 88.212 123.362 C 88.885 123.362 89.435 122.827 89.454 122.155 L 89.454 87.325 C 89.455 86.996 89.324 86.679 89.091 86.446 C 88.858 86.213 88.542 86.082 88.213 86.082 L 88.213 86.082 Z " fill="rgb(108,91,124)"/><path d=" M 108.1 86.082 C 107.77 86.082 107.454 86.213 107.221 86.446 C 106.988 86.679 106.857 86.995 106.858 87.325 L 106.858 122.155 C 106.877 122.827 107.427 123.362 108.099 123.362 C 108.772 123.362 109.322 122.827 109.341 122.155 L 109.341 87.325 C 109.342 86.996 109.211 86.679 108.978 86.446 C 108.745 86.213 108.429 86.082 108.1 86.082 L 108.1 86.082 Z " fill="rgb(108,91,124)"/></g><rect x="17.943" y="87.325" width="3.189" height="34.739" transform="matrix(1,0,0,1,0,0)" fill="rgb(236,157,165)"/><rect x="89.454" y="87.369" width="3.718" height="34.74" transform="matrix(1,0,0,1,0,0)" fill="rgb(236,157,165)"/><rect x="47.774" y="59.013" width="4.037" height="63.051" transform="matrix(1,0,0,1,0,0)" fill="rgb(236,157,165)"/></g></svg>