<?xml version="1.0" standalone="no"?><!-- Generator: Gravit.io --><svg xmlns="http://www.w3.org/2000/svg" xmlns:xlink="http://www.w3.org/1999/xlink" style="isolation:isolate" viewBox="0 0 24 24" width="24" height="24"><defs><clipPath id="_clipPath_G8gzBD6dNFlvVFNoMJPIkzZkwi8HnIPT"><rect width="24" height="24"/></clipPath></defs><g clip-path="url(#_clipPath_G8gzBD6dNFlvVFNoMJPIkzZkwi8HnIPT)"><path d=" M 21.959 13.719 L 21.959 21.098 L 17.681 21.098 L 17.681 14.213 C 17.681 12.483 17.062 11.303 15.514 11.303 C 14.332 11.303 13.628 12.099 13.319 12.868 C 13.206 13.143 13.177 13.526 13.177 13.911 L 13.177 21.098 L 8.897 21.098 C 8.897 21.098 8.955 9.438 8.897 8.229 L 13.177 8.229 L 13.177 10.053 L 13.149 10.095 L 13.177 10.095 L 13.177 10.053 C 13.745 9.178 14.76 7.927 17.033 7.927 C 19.848 7.927 21.959 9.767 21.959 13.719 Z  M 4.421 2.026 C 2.958 2.026 2 2.986 2 4.249 C 2 5.484 2.93 6.473 4.365 6.473 L 4.393 6.473 C 5.886 6.473 6.813 5.484 6.813 4.249 C 6.787 2.986 5.887 2.026 4.422 2.026 L 4.421 2.026 Z  M 2.254 21.098 L 6.532 21.098 L 6.532 8.229 L 2.254 8.229 L 2.254 21.098 Z " fill="rgb(255,255,255)"/></g></svg>