<?xml version="1.0" standalone="no"?><!-- Generator: Gravit.io --><svg xmlns="http://www.w3.org/2000/svg" xmlns:xlink="http://www.w3.org/1999/xlink" style="isolation:isolate" viewBox="0 0 82.057 122.759" width="82.057" height="122.759"><defs><clipPath id="_clipPath_bErXUwWZUFY5oLvJ05CL09oVUUMlEtQD"><rect width="82.057" height="122.759"/></clipPath></defs><g clip-path="url(#_clipPath_bErXUwWZUFY5oLvJ05CL09oVUUMlEtQD)"><path d=" M 40.49 2.519 C 40.439 2.523 40.389 2.53 40.339 2.539 C 40.294 2.546 40.246 2.554 40.202 2.564 L 40.19 2.564 C 40.299 2.544 40.411 2.528 40.522 2.515 L 40.49 2.519 Z " fill="none"/><path d=" M 39.561 2.736 C 39.521 2.747 39.484 2.763 39.444 2.777 L 39.383 2.804 C 39.478 2.767 39.574 2.731 39.672 2.704 C 39.636 2.71 39.6 2.721 39.561 2.736 Z " fill="none"/><path d=" M 16.135 22.281 C 17.313 22.282 18.375 21.573 18.826 20.485 C 19.277 19.398 19.028 18.145 18.196 17.312 C 17.364 16.479 16.111 16.23 15.023 16.68 C 13.935 17.131 13.226 18.192 13.226 19.37 C 13.227 20.976 14.529 22.279 16.135 22.281 L 16.135 22.281 Z " fill="none"/><path d=" M 38.9 3.031 C 38.8 3.088 38.7 3.149 38.6 3.214 C 38.7 3.149 38.8 3.086 38.9 3.03 L 38.9 3.031 Z " fill="none"/><path d=" M 39.041 2.957 L 38.95 3.005 C 39.016 2.97 39.083 2.94 39.15 2.905 C 39.115 2.925 39.077 2.938 39.041 2.957 Z " fill="none"/><path d=" M 36.945 5.2 L 36.94 5.211 C 36.913 5.271 36.89 5.332 36.868 5.393 C 36.846 5.454 36.821 5.527 36.799 5.593 C 36.777 5.659 36.761 5.725 36.742 5.793 L 36.749 5.793 C 36.8 5.591 36.865 5.393 36.945 5.2 Z " fill="none"/><path d=" M 40.838 2.489 C 40.773 2.489 40.711 2.494 40.646 2.502 L 40.615 2.502 C 40.752 2.49 40.89 2.482 41.029 2.482 C 40.965 2.485 40.9 2.487 40.838 2.489 Z " fill="none"/><line x1="41" y1="11.341" x2="41.022" y2="11.341"/><path d=" M 39.737 2.678 C 39.847 2.644 39.959 2.616 40.073 2.592 C 39.959 2.616 39.848 2.644 39.737 2.678 Z " fill="none"/><path d=" M 65.922 22.281 C 67.1 22.282 68.162 21.574 68.614 20.486 C 69.065 19.398 68.817 18.146 67.984 17.313 C 67.152 16.48 65.9 16.23 64.812 16.68 C 63.724 17.131 63.014 18.192 63.014 19.37 C 63.015 20.976 64.316 22.278 65.922 22.281 L 65.922 22.281 Z " fill="none"/><path d=" M 37.154 4.772 C 37.209 4.672 37.269 4.572 37.332 4.479 C 37.268 4.574 37.209 4.672 37.154 4.772 Z " fill="none"/><path d=" M 37.962 3.724 C 38.016 3.674 38.07 3.624 38.125 3.577 C 38.07 3.624 38.016 3.674 37.962 3.724 Z " fill="none"/><path d=" M 38.445 3.319 C 38.401 3.35 38.359 3.381 38.317 3.419 C 38.297 3.434 38.28 3.45 38.262 3.465 C 38.339 3.403 38.42 3.343 38.501 3.286 L 38.445 3.319 Z " fill="none"/><path d=" M 37.472 4.275 C 37.437 4.323 37.405 4.37 37.372 4.417 L 37.372 4.417 C 37.44 4.317 37.512 4.225 37.586 4.133 C 37.545 4.181 37.508 4.227 37.472 4.275 Z " fill="none"/><path d=" M 37.745 3.945 C 37.708 3.983 37.675 4.024 37.645 4.064 C 37.701 3.998 37.76 3.934 37.82 3.871 C 37.793 3.9 37.768 3.919 37.745 3.945 Z " fill="none"/><path d=" M 37.039 4.986 C 37.011 5.046 36.984 5.109 36.957 5.172 C 37.007 5.054 37.064 4.938 37.123 4.826 C 37.094 4.877 37.065 4.931 37.039 4.986 Z " fill="none"/><path d=" M 31.336 54.238 L 31.336 54.238 C 34.451 54.241 36.976 56.764 36.98 59.879 C 36.976 56.764 34.451 54.241 31.336 54.238 L 31.336 54.238 Z " fill="none"/><path d=" M 50.6 77.922 C 49.914 77.921 49.358 77.365 49.357 76.679 L 49.357 76.679 C 49.357 77.365 49.913 77.921 50.599 77.921 C 51.285 77.921 51.841 77.365 51.841 76.679 L 51.841 76.679 C 51.841 77.008 51.711 77.324 51.478 77.558 C 51.245 77.791 50.929 77.922 50.6 77.922 L 50.6 77.922 Z " fill="none"/><path d=" M 29.919 99.133 L 33.825 99.133 L 33.825 115.505 L 52.141 115.505 L 52.141 111.736 L 38.3 111.736 C 37.856 111.736 37.446 111.499 37.224 111.115 C 37.003 110.731 37.003 110.257 37.224 109.873 C 37.446 109.489 37.856 109.252 38.3 109.252 L 52.141 109.252 L 52.141 105.615 L 38.3 105.615 C 37.856 105.615 37.446 105.378 37.224 104.994 C 37.003 104.61 37.003 104.136 37.224 103.752 C 37.446 103.368 37.856 103.131 38.3 103.131 L 52.141 103.131 L 52.141 99.131 L 29.919 99.131 L 29.919 99.133 Z " fill="none"/><path d=" M 37.862 10 C 37.817 9.954 37.775 9.905 37.732 9.857 C 37.775 9.906 37.816 9.955 37.862 10 Z " fill="rgb(162,203,235)"/><path d=" M 37.56 9.658 C 37.521 9.607 37.483 9.558 37.446 9.504 C 37.483 9.556 37.521 9.607 37.56 9.658 Z " fill="rgb(162,203,235)"/><path d=" M 36.609 6.622 C 36.602 6.717 36.6 6.814 36.6 6.911 C 36.6 6.781 36.608 6.653 36.62 6.525 C 36.616 6.558 36.612 6.59 36.609 6.622 Z " fill="rgb(162,203,235)"/><path d=" M 37.238 9.2 C 37.254 9.227 37.274 9.25 37.29 9.276 C 37.257 9.225 37.225 9.171 37.19 9.118 C 37.209 9.144 37.222 9.173 37.238 9.2 Z " fill="rgb(162,203,235)"/><path d=" M 36.624 7.391 C 36.64 7.518 36.656 7.642 36.682 7.764 L 36.688 7.793 C 36.629 7.503 36.6 7.207 36.6 6.911 C 36.6 7.073 36.609 7.234 36.624 7.391 Z " fill="rgb(162,203,235)"/><path d=" M 36.689 6.025 C 36.676 6.082 36.667 6.14 36.66 6.198 C 36.648 6.255 36.639 6.312 36.634 6.37 L 36.634 6.402 C 36.649 6.275 36.666 6.146 36.693 6.022 L 36.689 6.025 Z " fill="rgb(162,203,235)"/><path d=" M 36.929 8.58 C 36.887 8.48 36.849 8.38 36.814 8.269 C 36.849 8.376 36.886 8.479 36.929 8.58 Z " fill="rgb(162,203,235)"/><path d=" M 37.027 8.806 C 37.03 8.815 37.034 8.824 37.039 8.832 C 37.052 8.858 37.068 8.883 37.081 8.909 C 37.047 8.842 37.015 8.775 36.981 8.709 C 37 8.74 37.012 8.774 37.027 8.806 Z " fill="rgb(162,203,235)"/><path d=" M 25.466 23.717 C 23.686 23.719 21.917 23.436 20.226 22.88 C 19.781 23.399 19.241 23.828 18.636 24.146 L 22.9 40.835 L 22.9 27.6 C 22.9 27.6 39.917 27.717 40.978 13.83 L 40.787 13.822 C 38.049 19.828 32.066 23.691 25.466 23.717 Z " fill="rgb(236,157,165)"/><path d=" M 40.688 11.323 C 40.718 11.323 40.748 11.332 40.779 11.333 C 40.838 11.333 40.897 11.333 40.957 11.333 C 40.973 11.334 40.988 11.334 41.004 11.333 L 41.004 11.333 C 40.9 11.338 40.793 11.332 40.688 11.323 Z " fill="rgb(162,203,235)"/><path d=" M 39.7 11.134 L 39.7 11.134 C 39.689 11.134 39.68 11.125 39.669 11.122 L 39.7 11.134 Z " fill="rgb(162,203,235)"/><path d=" M 36.8 8.211 C 36.76 8.083 36.728 7.954 36.7 7.823 C 36.722 7.954 36.755 8.082 36.8 8.211 Z " fill="rgb(162,203,235)"/><path d=" M 38.072 10.2 C 38.112 10.236 38.151 10.274 38.192 10.31 C 38.151 10.273 38.112 10.235 38.072 10.2 Z " fill="rgb(162,203,235)"/><path d=" M 36.742 5.793 C 36.725 5.867 36.706 5.939 36.691 6.013 C 36.707 5.938 36.729 5.866 36.749 5.792 L 36.742 5.793 Z " fill="rgb(162,203,235)"/><line x1="39.3" y1="10.988" x2="39.295" y2="10.988"/><path d=" M 40.436 11.3 C 40.367 11.291 40.296 11.281 40.227 11.269 C 40.3 11.277 40.367 11.287 40.436 11.3 Z " fill="rgb(162,203,235)"/><path d=" M 39.861 11.185 C 39.902 11.195 39.944 11.201 39.985 11.21 C 39.903 11.191 39.823 11.173 39.743 11.149 L 39.861 11.185 Z " fill="rgb(162,203,235)"/><path d=" M 41.029 38.031 C 27.088 38.028 14.968 47.595 11.734 61.155 C 8.499 74.715 14.994 88.722 27.435 95.013 L 27.435 96.648 L 25.846 96.648 C 25.402 96.648 24.992 96.885 24.77 97.269 C 24.549 97.653 24.549 98.127 24.77 98.511 C 24.992 98.895 25.402 99.132 25.846 99.132 L 27.435 99.132 L 27.435 116.747 C 27.436 117.433 27.991 117.989 28.677 117.99 L 33.777 117.99 L 33.777 121.517 C 33.777 121.846 33.908 122.163 34.14 122.396 C 34.373 122.628 34.69 122.759 35.019 122.759 L 47.046 122.759 C 47.376 122.76 47.692 122.629 47.925 122.396 C 48.158 122.163 48.289 121.847 48.288 121.517 L 48.288 117.99 L 53.388 117.99 C 54.074 117.989 54.629 117.433 54.629 116.747 L 54.629 111.737 L 56.22 111.737 C 56.892 111.718 57.428 111.167 57.428 110.494 C 57.428 109.822 56.892 109.271 56.22 109.252 L 54.624 109.252 L 54.624 105.616 L 56.215 105.616 C 56.887 105.597 57.423 105.046 57.423 104.374 C 57.423 103.701 56.887 103.15 56.215 103.131 L 54.624 103.131 L 54.624 99.131 L 56.215 99.131 C 56.887 99.112 57.423 98.561 57.423 97.889 C 57.423 97.216 56.887 96.665 56.215 96.646 L 54.624 96.646 L 54.624 95.013 C 67.061 88.72 73.554 74.714 70.319 61.156 C 67.084 47.598 54.968 38.031 41.029 38.031 Z  M 45.8 117.99 L 45.8 120.274 L 36.257 120.274 L 36.257 117.99 L 45.8 117.99 L 45.8 117.99 Z  M 52.137 103.131 L 38.3 103.131 C 37.848 103.118 37.424 103.352 37.194 103.742 C 36.964 104.132 36.964 104.615 37.194 105.005 C 37.424 105.395 37.848 105.629 38.3 105.616 L 52.141 105.616 L 52.141 109.252 L 38.3 109.252 C 37.848 109.239 37.424 109.473 37.194 109.863 C 36.964 110.253 36.964 110.736 37.194 111.126 C 37.424 111.516 37.848 111.75 38.3 111.737 L 52.141 111.737 L 52.141 115.505 L 29.919 115.505 L 29.919 99.133 L 52.141 99.133 L 52.137 103.131 Z  M 52.847 93.12 C 52.822 93.132 52.803 93.147 52.78 93.16 C 52.738 93.182 52.698 93.207 52.659 93.234 C 52.627 93.257 52.597 93.282 52.569 93.309 C 52.536 93.334 52.506 93.362 52.477 93.391 C 52.45 93.421 52.428 93.453 52.403 93.483 C 52.378 93.513 52.353 93.547 52.33 93.583 C 52.307 93.619 52.293 93.649 52.276 93.683 C 52.256 93.72 52.238 93.758 52.223 93.797 C 52.209 93.833 52.198 93.87 52.189 93.908 C 52.177 93.947 52.167 93.986 52.159 94.026 C 52.15 94.071 52.145 94.116 52.144 94.162 C 52.14 94.189 52.137 94.217 52.136 94.244 L 52.136 96.649 L 29.919 96.649 L 29.919 94.243 C 29.919 94.213 29.919 94.186 29.912 94.156 C 29.909 94.112 29.904 94.068 29.897 94.025 C 29.891 93.984 29.881 93.944 29.868 93.905 C 29.858 93.869 29.848 93.831 29.835 93.796 C 29.822 93.761 29.8 93.719 29.781 93.682 C 29.764 93.648 29.746 93.614 29.726 93.582 C 29.704 93.549 29.678 93.517 29.654 93.482 C 29.63 93.447 29.606 93.42 29.579 93.391 C 29.552 93.362 29.519 93.333 29.488 93.306 C 29.459 93.28 29.429 93.256 29.398 93.234 C 29.36 93.207 29.32 93.183 29.279 93.162 C 29.254 93.147 29.234 93.132 29.209 93.12 C 25.959 91.575 23.043 89.408 20.626 86.743 C 20.411 86.504 20.197 86.263 19.988 86.017 C 19.154 85.035 18.39 83.995 17.7 82.907 C 17.529 82.637 17.362 82.361 17.2 82.083 C 17.038 81.805 16.879 81.526 16.727 81.243 C 16.191 80.251 15.716 79.227 15.304 78.178 C 15.187 77.878 15.073 77.578 14.966 77.271 C 11.333 66.903 14.19 55.368 22.241 47.894 C 30.293 40.419 42.008 38.427 52.078 42.82 C 62.147 47.213 68.656 57.156 68.654 68.142 C 68.654 69.785 68.505 71.426 68.209 73.042 C 66.604 81.809 60.892 89.276 52.851 93.12 L 52.847 93.12 Z " fill="rgb(108,91,124)"/><rect x="36.081" y="117.993" width="9.547" height="2.285" transform="matrix(1,0,0,1,0,0)" fill="rgb(236,157,165)"/><path d=" M 40.853 40.519 C 31.896 40.506 23.489 44.843 18.309 52.15 C 13.128 59.458 11.817 68.826 14.794 77.274 C 14.901 77.58 15.015 77.88 15.132 78.181 C 15.545 79.23 16.02 80.254 16.555 81.246 C 16.707 81.529 16.866 81.81 17.028 82.086 C 17.19 82.362 17.358 82.64 17.528 82.91 C 18.216 83.999 18.979 85.038 19.811 86.021 C 20.02 86.267 20.234 86.508 20.449 86.746 C 22.866 89.412 25.782 91.578 29.032 93.123 C 29.057 93.136 29.077 93.15 29.102 93.166 C 29.144 93.187 29.183 93.21 29.221 93.237 C 29.253 93.26 29.281 93.284 29.311 93.31 C 29.343 93.337 29.373 93.365 29.402 93.395 C 29.429 93.424 29.452 93.454 29.477 93.486 C 29.502 93.518 29.527 93.551 29.549 93.586 C 29.569 93.618 29.588 93.652 29.604 93.686 C 29.623 93.723 29.641 93.759 29.658 93.8 C 29.675 93.841 29.681 93.872 29.691 93.909 C 29.704 93.948 29.714 93.988 29.72 94.028 C 29.728 94.072 29.733 94.116 29.735 94.16 C 29.735 94.19 29.742 94.216 29.742 94.247 L 29.742 96.647 L 51.965 96.647 L 51.965 94.247 C 51.966 94.22 51.968 94.192 51.972 94.165 C 51.973 94.119 51.978 94.073 51.987 94.028 C 51.995 93.988 52.005 93.951 52.017 93.911 C 52.026 93.873 52.037 93.836 52.051 93.8 C 52.066 93.761 52.084 93.723 52.104 93.686 C 52.121 93.65 52.139 93.618 52.159 93.586 C 52.179 93.554 52.206 93.52 52.231 93.486 C 52.256 93.452 52.278 93.424 52.305 93.395 C 52.334 93.366 52.365 93.338 52.398 93.313 C 52.426 93.286 52.455 93.261 52.487 93.238 C 52.526 93.211 52.566 93.186 52.608 93.163 C 52.631 93.151 52.651 93.136 52.675 93.124 C 60.719 89.281 66.432 81.814 68.037 73.045 C 68.334 71.429 68.482 69.788 68.482 68.145 C 68.464 52.894 56.104 40.536 40.853 40.519 L 40.853 40.519 Z  M 39.288 59.887 L 39.288 81.608 C 39.288 82.294 38.732 82.85 38.046 82.85 C 37.36 82.85 36.804 82.294 36.804 81.608 L 36.804 70.913 L 25.518 70.913 L 25.518 81.613 C 25.518 82.057 25.281 82.467 24.897 82.689 C 24.513 82.91 24.039 82.91 23.655 82.689 C 23.271 82.467 23.034 82.057 23.034 81.613 L 23.034 59.885 C 23.029 55.711 26.187 52.211 30.34 51.789 C 34.493 51.367 38.29 54.16 39.124 58.25 C 39.179 58.514 39.22 58.781 39.247 59.05 C 39.276 59.326 39.29 59.603 39.29 59.88 L 39.288 59.887 Z  M 57.43 70.913 L 51.661 70.913 L 51.661 76.682 L 51.661 76.682 C 51.661 77.368 51.105 77.924 50.419 77.924 C 49.733 77.924 49.177 77.368 49.177 76.682 L 49.177 76.682 L 49.177 70.913 L 43.406 70.913 C 42.734 70.894 42.198 70.343 42.198 69.67 C 42.198 68.998 42.734 68.447 43.406 68.428 L 49.177 68.428 L 49.177 62.657 C 49.177 61.971 49.733 61.415 50.419 61.415 C 51.105 61.415 51.661 61.971 51.661 62.657 L 51.661 68.428 L 57.43 68.428 C 58.103 68.447 58.638 68.998 58.638 69.67 C 58.638 70.343 58.103 70.894 57.43 70.913 Z " fill="rgb(236,157,165)"/><path d=" M 5.952 48.756 L 9.894 51.033 C 10.082 51.142 10.296 51.199 10.514 51.199 C 11.077 51.2 11.569 50.822 11.715 50.279 C 11.861 49.736 11.623 49.162 11.136 48.881 L 7.194 46.6 C 6.6 46.257 5.84 46.461 5.497 47.055 C 5.154 47.649 5.358 48.409 5.952 48.752 L 5.952 48.756 Z " fill="rgb(108,91,124)"/><path d=" M 7.037 67.575 C 7.037 67.245 6.906 66.929 6.673 66.696 C 6.44 66.463 6.124 66.332 5.794 66.333 L 1.241 66.333 C 0.569 66.352 0.034 66.902 0.034 67.575 C 0.034 68.247 0.569 68.797 1.241 68.816 L 5.794 68.816 C 6.48 68.816 7.036 68.261 7.037 67.575 Z " fill="rgb(108,91,124)"/><path d=" M 9.894 84.116 L 5.952 86.391 C 5.358 86.734 5.154 87.493 5.496 88.088 C 5.839 88.682 6.599 88.886 7.193 88.543 L 11.136 86.268 C 11.52 86.046 11.757 85.636 11.757 85.192 C 11.757 84.748 11.521 84.338 11.136 84.116 C 10.752 83.894 10.278 83.894 9.894 84.116 L 9.894 84.116 Z " fill="rgb(108,91,124)"/><path d=" M 76.106 86.393 L 72.165 84.118 C 71.78 83.89 71.303 83.886 70.914 84.108 C 70.526 84.33 70.287 84.744 70.289 85.191 C 70.291 85.638 70.533 86.05 70.923 86.269 L 74.865 88.544 C 75.25 88.778 75.732 88.786 76.124 88.563 C 76.516 88.341 76.756 87.924 76.753 87.473 C 76.749 87.022 76.502 86.609 76.106 86.393 L 76.106 86.393 Z " fill="rgb(108,91,124)"/><path d=" M 80.815 66.333 L 76.266 66.333 C 75.822 66.333 75.412 66.57 75.19 66.954 C 74.969 67.338 74.969 67.812 75.19 68.196 C 75.412 68.58 75.822 68.817 76.266 68.817 L 80.815 68.817 C 81.259 68.817 81.669 68.58 81.891 68.196 C 82.112 67.812 82.112 67.338 81.891 66.954 C 81.669 66.57 81.259 66.333 80.815 66.333 L 80.815 66.333 Z " fill="rgb(108,91,124)"/><path d=" M 70.47 50.579 C 70.635 50.865 70.907 51.073 71.226 51.159 C 71.545 51.244 71.884 51.199 72.17 51.033 L 76.111 48.756 C 76.706 48.412 76.91 47.65 76.566 47.055 C 76.222 46.46 75.46 46.256 74.865 46.6 L 70.923 48.877 C 70.637 49.042 70.428 49.314 70.343 49.634 C 70.258 49.953 70.303 50.293 70.47 50.579 Z " fill="rgb(108,91,124)"/><path d=" M 39.3 58.247 C 38.466 54.157 34.668 51.364 30.515 51.786 C 26.362 52.208 23.205 55.708 23.21 59.882 L 23.21 81.605 C 23.21 82.291 23.766 82.847 24.452 82.847 C 25.138 82.847 25.694 82.291 25.694 81.605 L 25.694 70.91 L 36.98 70.91 L 36.98 81.61 C 36.98 82.296 37.536 82.852 38.222 82.852 C 38.908 82.852 39.464 82.296 39.464 81.61 L 39.464 59.882 C 39.464 59.605 39.449 59.328 39.421 59.052 C 39.395 58.782 39.354 58.513 39.3 58.247 L 39.3 58.247 Z  M 36.98 59.882 L 36.98 59.882 L 36.98 68.425 L 25.694 68.425 L 25.694 59.882 C 25.697 56.767 28.221 54.242 31.336 54.238 L 31.336 54.238 C 34.451 54.241 36.976 56.764 36.98 59.879 L 36.98 59.882 Z " fill="rgb(108,91,124)"/><path d=" M 31.336 54.238 L 31.336 54.238 C 28.221 54.242 25.697 56.768 25.694 59.883 L 25.694 68.425 L 36.98 68.425 L 36.98 59.883 L 36.98 59.883 L 36.98 59.883 C 36.978 56.767 34.452 54.241 31.336 54.238 L 31.336 54.238 Z " fill="rgb(236,157,165)"/><path d=" M 57.606 68.425 L 51.837 68.425 L 51.837 62.654 C 51.837 61.968 51.281 61.412 50.595 61.412 C 49.909 61.412 49.353 61.968 49.353 62.654 L 49.353 68.425 L 43.582 68.425 C 42.91 68.444 42.374 68.995 42.374 69.667 C 42.374 70.34 42.91 70.891 43.582 70.91 L 49.353 70.91 L 49.353 76.679 C 49.353 77.365 49.909 77.921 50.595 77.921 C 51.281 77.921 51.837 77.365 51.837 76.679 L 51.837 70.91 L 57.606 70.91 C 58.278 70.891 58.814 70.34 58.814 69.667 C 58.814 68.995 58.278 68.444 57.606 68.425 L 57.606 68.425 Z " fill="rgb(108,91,124)"/><path d=" M 16.135 24.765 L 16.229 24.765 L 20.022 39.615 L 20.492 41.451 C 20.633 42 21.126 42.384 21.692 42.387 C 21.796 42.387 21.9 42.373 22 42.346 C 22.32 42.265 22.594 42.06 22.763 41.777 C 22.932 41.494 22.981 41.155 22.9 40.835 L 18.636 24.146 C 19.241 23.828 19.781 23.399 20.226 22.88 C 21.917 23.436 23.686 23.719 25.466 23.717 C 32.067 23.69 38.049 19.824 40.786 13.817 L 40.977 13.825 L 41.029 13.825 C 41.111 13.825 41.191 13.819 41.272 13.817 C 44.008 19.825 49.991 23.691 56.593 23.717 C 58.373 23.718 60.141 23.436 61.832 22.88 C 62.277 23.399 62.817 23.828 63.422 24.146 L 59.156 40.833 C 59.075 41.153 59.124 41.492 59.293 41.775 C 59.461 42.058 59.736 42.263 60.056 42.343 C 60.157 42.369 60.261 42.382 60.366 42.383 C 60.932 42.38 61.426 41.995 61.566 41.446 L 65.832 24.763 L 65.925 24.763 C 68.223 24.763 70.269 23.307 71.022 21.136 C 71.774 18.964 71.068 16.554 69.262 15.133 C 67.456 13.711 64.948 13.59 63.013 14.831 C 61.079 16.072 60.144 18.403 60.684 20.637 C 59.358 21.033 57.98 21.233 56.596 21.23 C 51.156 21.208 46.192 18.126 43.759 13.261 C 46.935 11.896 48.614 8.395 47.691 5.064 C 46.767 1.732 43.524 -0.404 40.099 0.062 C 36.673 0.527 34.119 3.452 34.118 6.909 C 34.118 6.966 34.118 7.021 34.118 7.079 C 34.187 9.779 35.82 12.193 38.3 13.263 C 35.868 18.128 30.904 21.21 25.465 21.232 C 24.08 21.235 22.702 21.035 21.375 20.639 C 21.477 20.224 21.528 19.798 21.527 19.37 C 21.523 16.392 19.107 13.981 16.129 13.984 C 13.152 13.987 10.74 16.402 10.741 19.379 C 10.742 22.357 13.156 24.77 16.134 24.77 L 16.135 24.765 Z  M 65.922 16.465 C 67.1 16.464 68.162 17.172 68.614 18.26 C 69.065 19.348 68.817 20.601 67.984 21.434 C 67.152 22.267 65.899 22.516 64.811 22.065 C 63.723 21.615 63.014 20.553 63.014 19.375 C 63.013 17.767 64.314 16.463 65.922 16.46 L 65.922 16.465 Z  M 37.862 10 C 37.816 9.954 37.775 9.905 37.732 9.857 C 37.674 9.792 37.616 9.725 37.561 9.657 C 37.521 9.606 37.484 9.557 37.446 9.503 C 37.392 9.428 37.34 9.353 37.29 9.274 C 37.274 9.248 37.254 9.225 37.239 9.198 C 37.224 9.171 37.21 9.143 37.195 9.116 C 37.155 9.047 37.117 8.978 37.081 8.908 C 37.068 8.882 37.052 8.857 37.039 8.831 C 37.034 8.823 37.03 8.814 37.028 8.805 C 37.012 8.773 36.999 8.739 36.984 8.705 C 36.969 8.671 36.947 8.619 36.929 8.577 C 36.888 8.477 36.849 8.377 36.815 8.266 C 36.809 8.247 36.802 8.228 36.795 8.208 C 36.755 8.079 36.723 7.951 36.695 7.82 C 36.695 7.809 36.69 7.8 36.689 7.79 C 36.688 7.78 36.684 7.77 36.683 7.761 C 36.657 7.639 36.64 7.515 36.625 7.388 C 36.611 7.231 36.6 7.07 36.6 6.908 C 36.6 6.808 36.6 6.714 36.611 6.619 C 36.611 6.587 36.616 6.555 36.62 6.519 C 36.624 6.483 36.627 6.436 36.632 6.396 L 36.632 6.364 C 36.638 6.309 36.647 6.254 36.66 6.2 C 36.667 6.142 36.677 6.083 36.69 6.026 L 36.69 6.026 L 36.69 6.016 C 36.704 5.942 36.723 5.87 36.74 5.795 C 36.757 5.72 36.777 5.664 36.797 5.595 C 36.817 5.526 36.842 5.459 36.867 5.395 C 36.892 5.331 36.911 5.273 36.939 5.213 L 36.939 5.201 L 36.95 5.176 C 36.977 5.112 37.004 5.049 37.033 4.989 C 37.062 4.929 37.088 4.881 37.117 4.829 L 37.147 4.776 C 37.202 4.676 37.262 4.576 37.326 4.482 C 37.339 4.463 37.351 4.443 37.364 4.423 L 37.364 4.423 C 37.396 4.377 37.428 4.33 37.464 4.282 C 37.5 4.234 37.537 4.188 37.576 4.142 C 37.595 4.117 37.614 4.093 37.633 4.071 C 37.667 4.031 37.7 3.99 37.733 3.952 C 37.766 3.914 37.781 3.904 37.805 3.878 C 37.852 3.829 37.9 3.778 37.95 3.731 C 38 3.684 38.058 3.631 38.112 3.584 C 38.166 3.537 38.202 3.504 38.249 3.467 L 38.304 3.421 C 38.346 3.388 38.389 3.357 38.433 3.321 L 38.489 3.283 C 38.521 3.26 38.554 3.237 38.589 3.216 C 38.689 3.151 38.789 3.089 38.889 3.033 L 38.889 3.033 L 38.937 3.008 L 39.027 2.96 C 39.063 2.941 39.101 2.929 39.136 2.911 C 39.213 2.875 39.29 2.839 39.369 2.811 L 39.43 2.784 C 39.47 2.77 39.507 2.754 39.547 2.743 C 39.587 2.732 39.622 2.717 39.658 2.706 L 39.723 2.685 C 39.834 2.651 39.945 2.623 40.059 2.599 L 40.177 2.573 L 40.189 2.573 C 40.233 2.563 40.28 2.555 40.325 2.548 C 40.37 2.541 40.425 2.533 40.477 2.528 C 40.487 2.528 40.498 2.528 40.508 2.528 L 40.602 2.517 C 40.612 2.516 40.623 2.516 40.633 2.517 C 40.697 2.509 40.76 2.507 40.824 2.504 C 40.888 2.501 40.951 2.504 41.015 2.504 C 43.461 2.504 45.443 4.486 45.443 6.932 C 45.443 9.378 43.461 11.36 41.015 11.36 L 40.991 11.36 C 40.975 11.361 40.959 11.361 40.943 11.36 C 40.883 11.36 40.824 11.36 40.765 11.36 C 40.734 11.36 40.704 11.353 40.674 11.35 C 40.589 11.344 40.506 11.335 40.422 11.323 C 40.353 11.314 40.282 11.304 40.213 11.292 C 40.144 11.28 40.052 11.257 39.971 11.238 C 39.931 11.228 39.888 11.222 39.848 11.212 L 39.729 11.176 L 39.682 11.162 L 39.682 11.162 L 39.653 11.151 C 39.528 11.11 39.405 11.066 39.286 11.016 L 39.281 11.016 C 38.883 10.845 38.513 10.617 38.181 10.339 C 38.139 10.304 38.1 10.266 38.06 10.229 C 38 10.134 37.929 10.07 37.862 10 Z  M 16.135 16.46 C 17.313 16.459 18.375 17.168 18.826 18.256 C 19.277 19.344 19.028 20.596 18.196 21.429 C 17.363 22.262 16.111 22.511 15.023 22.06 C 13.935 21.61 13.226 20.548 13.226 19.37 C 13.228 17.764 14.529 16.463 16.135 16.46 L 16.135 16.46 Z " fill="rgb(108,91,124)"/><path d=" M 39.118 10.988 L 39.118 10.988 C 39.238 11.039 39.361 11.088 39.486 11.123 C 39.496 11.123 39.505 11.131 39.516 11.135 L 39.563 11.149 C 39.643 11.172 39.723 11.191 39.805 11.21 C 39.887 11.229 39.965 11.249 40.047 11.264 C 40.129 11.279 40.187 11.287 40.256 11.296 C 40.34 11.308 40.423 11.316 40.508 11.323 C 40.608 11.331 40.717 11.338 40.824 11.338 L 40.846 11.338 L 40.846 11.338 C 43.292 11.338 45.274 9.356 45.274 6.91 C 45.274 4.464 43.292 2.482 40.846 2.482 C 40.707 2.482 40.568 2.49 40.432 2.502 L 40.339 2.514 C 40.228 2.526 40.117 2.542 40.007 2.563 L 39.889 2.589 C 39.775 2.614 39.664 2.642 39.553 2.675 L 39.489 2.696 C 39.389 2.728 39.295 2.765 39.2 2.802 C 39.121 2.834 39.044 2.869 38.966 2.902 C 38.888 2.935 38.833 2.964 38.766 3.002 L 38.718 3.027 C 38.618 3.084 38.518 3.146 38.418 3.211 C 38.384 3.233 38.352 3.255 38.318 3.278 C 38.237 3.335 38.156 3.395 38.078 3.457 C 38.032 3.495 37.987 3.535 37.941 3.574 C 37.895 3.613 37.832 3.674 37.779 3.721 C 37.726 3.768 37.679 3.821 37.633 3.869 C 37.587 3.917 37.515 3.995 37.459 4.062 C 37.439 4.084 37.42 4.107 37.401 4.131 C 37.326 4.224 37.255 4.318 37.187 4.416 C 37.174 4.437 37.162 4.456 37.149 4.475 C 37.086 4.575 37.026 4.669 36.97 4.769 C 36.96 4.787 36.951 4.805 36.94 4.822 C 36.881 4.936 36.824 5.05 36.774 5.17 L 36.762 5.195 C 36.681 5.388 36.614 5.587 36.562 5.79 C 36.542 5.862 36.52 5.934 36.504 6.009 L 36.504 6.02 C 36.477 6.144 36.46 6.271 36.445 6.4 C 36.44 6.44 36.436 6.481 36.433 6.522 C 36.422 6.65 36.413 6.778 36.413 6.908 C 36.413 7.204 36.443 7.5 36.502 7.79 L 36.508 7.819 C 36.536 7.951 36.569 8.08 36.608 8.208 C 36.614 8.228 36.622 8.247 36.627 8.267 C 36.662 8.372 36.699 8.476 36.741 8.577 C 36.759 8.62 36.777 8.662 36.797 8.705 C 36.828 8.772 36.86 8.84 36.897 8.905 C 36.934 8.97 36.97 9.045 37.01 9.114 C 37.041 9.167 37.073 9.22 37.11 9.272 C 37.159 9.35 37.21 9.426 37.266 9.5 C 37.303 9.552 37.341 9.6 37.38 9.654 C 37.435 9.723 37.493 9.789 37.552 9.854 C 37.594 9.902 37.636 9.954 37.681 9.997 C 37.749 10.066 37.819 10.131 37.891 10.197 C 37.931 10.233 37.971 10.272 38.012 10.307 C 38.345 10.587 38.718 10.817 39.118 10.988 Z " fill="rgb(236,157,165)"/><path d=" M 29.743 99.136 L 29.743 99.136 L 29.743 115.509 L 33.649 115.509 L 33.649 115.508 L 33.649 99.136 L 29.743 99.136 L 29.743 99.136 Z " fill="rgb(236,157,165)"/></g></svg>